<svg width="900" height="600" viewBox="0 0 900 600" fill="none" xmlns="http://www.w3.org/2000/svg">
<g opacity="0.1" clip-path="url(#clip0_13_2)">
<path d="M492 516C677.568 516 828 510.627 828 504C828 497.373 677.568 492 492 492C306.432 492 156 497.373 156 504C156 510.627 306.432 516 492 516Z" fill="url(#paint0_linear_13_2)"/>
<path d="M191.206 423.919C191.206 423.919 209.772 389.597 258.388 356.115C292.71 332.473 309.373 271.462 309.373 271.462C309.373 271.462 240.929 279.351 214.045 323.269C187.161 367.186 191.206 423.919 191.206 423.919Z" fill="#CCA770"/>
<path d="M191.037 424.813C191.501 424.78 191.892 424.441 191.964 423.994C199.045 386.859 218.274 358.923 233.178 342.009C249.332 323.71 263.952 314.08 264.101 313.992C264.571 313.673 264.708 313.041 264.389 312.571C264.315 312.458 264.219 312.362 264.107 312.286C263.996 312.211 263.87 312.158 263.738 312.131C263.606 312.105 263.47 312.104 263.337 312.13C263.205 312.156 263.079 312.208 262.967 312.283C262.818 312.371 247.95 322.148 231.629 340.667C216.555 357.748 197.09 386.012 189.938 423.594C189.911 423.725 189.911 423.861 189.937 423.992C189.964 424.124 190.016 424.249 190.092 424.359C190.167 424.47 190.265 424.565 190.378 424.637C190.49 424.709 190.617 424.758 190.749 424.781C190.88 424.798 190.959 424.818 191.037 424.813Z" fill="#62533C"/>
<path d="M200.161 422.528C200.161 422.528 205.271 410.152 232.354 411.23C259.435 412.283 275.42 426.164 321.28 395.888C321.28 395.888 283.325 368.579 244.958 377.333C206.563 386.063 204.633 401.195 200.161 422.528V422.528Z" fill="#CCA770"/>
<path d="M200.104 423.544C200.439 423.52 200.762 423.316 200.946 422.991C201.062 422.801 211.717 403.052 230.8 398.163C264.148 389.611 287.89 398.762 288.131 398.875C288.386 398.971 288.668 398.963 288.918 398.853C289.167 398.743 289.363 398.54 289.464 398.287C289.559 398.035 289.554 397.756 289.449 397.507C289.344 397.259 289.149 397.06 288.902 396.952C288.662 396.865 264.305 387.447 230.295 396.176C210.32 401.284 199.599 421.193 199.14 422.03C198.865 422.543 199.064 423.151 199.576 423.426C199.713 423.52 199.923 423.557 200.104 423.544V423.544Z" fill="#62533C"/>
<path d="M188.211 420.475C188.211 420.475 189.623 407.17 165.316 395.18C141.009 383.189 120.347 387.75 94.502 339.264C94.502 339.264 140.883 333.389 170.444 359.403C200.002 385.365 194.452 399.588 188.211 420.475Z" fill="#CCA770"/>
<path d="M188.417 421.55C188.933 421.513 189.369 421.067 189.358 420.549C189.367 419.589 189.416 396.989 174.329 382.967C148.603 359.066 122.707 355.724 122.471 355.689C122.204 355.659 121.936 355.735 121.725 355.9C121.514 356.066 121.376 356.308 121.341 356.574C121.311 356.841 121.387 357.109 121.552 357.32C121.718 357.531 121.96 357.669 122.226 357.704C122.488 357.737 147.73 361.022 172.957 384.465C187.404 397.885 187.342 420.304 187.333 420.538C187.33 420.673 187.354 420.807 187.403 420.933C187.452 421.059 187.526 421.174 187.62 421.271C187.713 421.368 187.826 421.445 187.95 421.499C188.074 421.552 188.207 421.58 188.342 421.582C188.34 421.556 188.366 421.554 188.417 421.55Z" fill="#62533C"/>
<path d="M199.796 512.04C235.092 512.04 257.554 506.425 253.952 481.557C251.665 465.769 239.359 450.322 230.672 441.123C229.554 439.942 228.416 438.782 227.258 437.641C224.032 434.466 221.865 432.623 221.865 432.623L221.762 432.043L221.148 428.561L220.431 424.55L218.81 415.367L218.246 412.159L199.796 411.356L180.543 412.159L180.1 415.367L179.417 420.419L178.29 428.578L177.813 432.06L177.744 432.64C177.744 432.64 175.577 434.466 172.351 437.658C171.197 438.803 170.059 439.964 168.937 441.14C160.25 450.322 147.944 465.786 145.657 481.574C142.038 506.425 164.5 512.04 199.796 512.04V512.04Z" fill="#62533C"/>
<path d="M173.369 417.98H226.738C229.596 417.98 231.936 415.64 231.936 412.782V409.531C231.936 406.673 229.596 404.333 226.738 404.333H173.369C170.511 404.333 168.171 406.673 168.171 409.531V412.782C168.171 415.64 170.511 417.98 173.369 417.98Z" fill="#62533C"/>
<path d="M165 290.167C165 295.693 160.297 300.167 154.488 300.167C148.679 300.167 144 295.671 144 290.167C144 284.64 148.703 280.167 154.512 280.167C160.321 280.167 165 284.64 165 290.167Z" stroke="#E1E4E5" stroke-width="5.225" stroke-miterlimit="10"/>
<path d="M229.326 229.124C214.154 242.381 188.056 237.353 188.056 237.353C188.056 237.353 186.573 210.832 201.757 197.584C216.929 184.327 243.015 189.345 243.015 189.345C243.015 189.345 244.498 215.866 229.326 229.124Z" fill="url(#paint1_linear_13_2)"/>
<path d="M287.178 149.268C286.398 152.177 288.125 155.167 291.034 155.946C293.943 156.726 296.933 154.999 297.712 152.09C298.492 149.181 296.765 146.191 293.856 145.412C290.947 144.632 287.957 146.359 287.178 149.268Z" fill="#E1E4E5"/>
<path d="M306.984 218.288C306.204 221.197 307.931 224.187 310.84 224.966C313.749 225.746 316.739 224.019 317.518 221.11C318.298 218.201 316.571 215.211 313.662 214.432C310.753 213.652 307.763 215.379 306.984 218.288Z" fill="#E1E4E5"/>
<path d="M415.385 167.214C414.605 170.123 416.332 173.113 419.241 173.892C422.15 174.672 425.14 172.945 425.919 170.036C426.699 167.127 424.972 164.137 422.063 163.358C419.154 162.578 416.164 164.305 415.385 167.214Z" fill="#E1E4E5"/>
<path d="M611.899 287.359C611.387 289.27 612.521 291.235 614.433 291.747C616.344 292.259 618.309 291.125 618.821 289.213C619.333 287.302 618.199 285.337 616.287 284.825C614.376 284.313 612.411 285.447 611.899 287.359Z" fill="#E1E4E5"/>
<path d="M613.412 374.268C612.632 377.177 614.359 380.167 617.268 380.946C620.177 381.726 623.167 379.999 623.946 377.09C624.726 374.181 622.999 371.191 620.09 370.412C617.181 369.632 614.191 371.359 613.412 374.268Z" fill="#E1E4E5"/>
<path d="M656.412 342.268C655.632 345.177 657.359 348.167 660.268 348.946C663.177 349.726 666.167 347.999 666.946 345.09C667.726 342.181 665.999 339.191 663.09 338.412C660.181 337.632 657.191 339.359 656.412 342.268Z" fill="#E1E4E5"/>
<path d="M580.001 226.632V246.071L562.453 266.985H636.164C658.444 266.985 676.517 248.913 676.517 226.632C676.517 204.352 658.444 186.28 636.164 186.28H620.354C598.06 186.28 580.001 204.352 580.001 226.632V226.632Z" fill="#E1E4E5"/>
<path d="M611.097 226.564C611.096 228.466 610.34 230.291 608.995 231.636C607.65 232.981 605.825 233.737 603.923 233.738C602.021 233.737 600.197 232.981 598.851 231.636C597.506 230.29 596.75 228.466 596.749 226.564C596.75 224.662 597.506 222.838 598.851 221.492C600.197 220.147 602.021 219.391 603.923 219.39C605.825 219.391 607.65 220.147 608.995 221.492C610.34 222.837 611.096 224.662 611.097 226.564V226.564ZM635.474 226.563C635.473 228.465 634.718 230.29 633.373 231.635C632.028 232.98 630.203 233.736 628.301 233.737C626.399 233.736 624.574 232.98 623.229 231.635C621.884 230.29 621.128 228.465 621.127 226.563C621.128 224.661 621.884 222.836 623.229 221.491C624.574 220.146 626.399 219.39 628.301 219.389C630.203 219.39 632.027 220.146 633.372 221.491C634.717 222.837 635.473 224.661 635.474 226.563V226.563ZM659.852 226.563C659.851 228.465 659.095 230.29 657.75 231.635C656.405 232.98 654.58 233.736 652.678 233.737C650.776 233.736 648.951 232.98 647.606 231.635C646.261 230.29 645.505 228.465 645.504 226.563C645.505 224.661 646.261 222.837 647.606 221.491C648.952 220.146 650.776 219.39 652.678 219.389C654.58 219.39 656.405 220.146 657.75 221.491C659.095 222.836 659.851 224.661 659.852 226.563Z" fill="white"/>
<path d="M640.66 440.867L626.589 446.368L627.481 431.287L641.548 425.79L640.66 440.867V440.867Z" stroke="#E1E4E5" stroke-width="4.267" stroke-linecap="round" stroke-linejoin="round"/>
<path fill-rule="evenodd" clip-rule="evenodd" d="M331 166.477V128.18C331 124.213 334.207 121 338.165 121H381.158C385.117 121 388.324 124.213 388.324 128.18V166.477C388.325 167.757 387.983 169.013 387.335 170.117C386.687 171.22 385.755 172.13 384.637 172.753L363.141 184.719C362.077 185.312 360.879 185.623 359.66 185.623C358.442 185.623 357.244 185.312 356.18 184.719L334.683 172.753C333.566 172.129 332.636 171.219 331.989 170.115C331.342 169.012 331 167.756 331 166.477V166.477Z" fill="#E1E4E5"/>
<path d="M347.747 152.668H371.578M347.747 141.503H371.578M347.747 163.51H371.578" stroke="white" stroke-width="3.682" stroke-linecap="round" stroke-linejoin="round"/>
<path d="M674.25 279.887L656.042 298.095C655.379 298.758 655.379 299.834 656.042 300.497C656.705 301.16 657.78 301.16 658.443 300.497L676.651 282.289C677.314 281.626 677.314 280.55 676.651 279.887C675.988 279.224 674.913 279.224 674.25 279.887Z" fill="#E1E4E5"/>
<path d="M672.468 292.923L667.217 298.174C666.554 298.837 666.554 299.913 667.217 300.576C667.88 301.239 668.955 301.239 669.618 300.576L674.869 295.325C675.532 294.662 675.532 293.586 674.869 292.923C674.206 292.26 673.131 292.26 672.468 292.923Z" fill="#E1E4E5"/>
<path d="M760.852 225.076C760.852 225.076 745.492 220.954 740.197 256.166C734.902 291.377 734.864 310.664 734.864 310.664C734.864 310.664 732.92 318.321 727.21 315.64C721.5 312.959 711.672 303.252 705.007 307.809C698.098 312.539 698.431 321.897 704.062 333.939C709.693 345.981 721.057 372.793 722.077 375.23C723.083 377.609 722.875 381.692 718.693 380.485C714.511 379.278 687.685 364.02 681.212 377.176C674.725 390.337 695.928 421.296 698.177 424.72C700.427 428.145 700.236 430.003 698.762 431.531C697.288 433.058 688.749 427.078 680.947 423.044C673.144 419.01 663.381 415.716 660.278 423.622C657.175 431.527 664.081 457.758 702.422 491.306L721.205 505.688L743.297 496.936C789.428 475.327 803.336 452.032 802.541 443.579C801.746 435.126 791.457 435.586 782.837 437.298C774.216 439.011 764.357 442.388 763.364 440.51C762.37 438.633 762.691 436.801 765.803 434.13C768.915 431.459 797.86 407.595 795.275 393.145C792.693 378.709 762.689 385.937 758.337 385.924C753.989 385.926 754.931 381.953 756.551 379.941C758.206 377.89 776.567 355.27 785.306 345.257C794.05 335.259 796.96 326.349 791.631 319.891C786.5 313.656 774.357 320.278 768.131 321.273C761.905 322.267 762.16 314.36 762.16 314.36C762.16 314.36 767.48 295.816 772.139 260.515C776.797 225.214 760.509 225 760.509 225" fill="#E1E4E5"/>
<path d="M720.813 500.741C724.327 474.827 729.491 439.068 735.342 399.589C741.182 360.128 746.429 324.394 750.101 298.498C751.921 285.577 753.388 275.109 754.41 267.838C754.917 264.242 755.314 261.441 755.59 259.499C755.725 258.574 755.839 257.855 755.912 257.33C755.998 256.848 756.051 256.589 756.051 256.589C756.051 256.589 756.04 256.836 755.992 257.339C755.932 257.861 755.851 258.587 755.748 259.518C755.505 261.466 755.154 264.27 754.712 267.88C753.808 275.135 752.424 285.626 750.658 298.579C747.144 324.493 741.977 360.237 736.14 399.712C730.303 439.188 725.043 474.926 721.385 500.818" fill="white"/>
<path d="M718.214 321.955C718.267 321.926 718.637 322.393 719.305 323.286C719.97 324.164 720.885 325.466 721.992 327.083C724.21 330.332 727.16 334.885 730.32 339.994C733.397 345.019 736.193 349.568 738.344 353.08C739.31 354.628 740.121 355.941 740.796 357.031C741.382 357.961 741.678 358.495 741.625 358.524C741.571 358.554 741.187 358.09 740.523 357.212C739.873 356.329 738.958 355.028 737.861 353.393C735.668 350.122 732.781 345.521 729.639 340.422L721.527 327.406C720.561 325.859 719.736 324.549 719.061 323.459C718.471 322.514 718.175 321.981 718.214 321.955ZM743.811 358.229C743.686 358.048 752.815 351.544 764.21 343.729C775.602 335.899 784.951 329.704 785.076 329.885C785.201 330.066 776.068 336.555 764.677 344.385C753.271 352.218 743.936 358.41 743.811 358.229ZM732.111 418.446C732.095 418.389 732.68 418.171 733.729 417.798C734.952 417.394 736.458 416.898 738.227 416.302C742.023 415.04 747.274 413.265 752.989 411.106C758.707 408.961 763.82 406.841 767.521 405.283C769.242 404.562 770.699 403.942 771.895 403.437C772.929 403.007 773.517 402.804 773.543 402.843C773.573 402.896 773.025 403.196 772.033 403.722C770.621 404.446 769.194 405.14 767.752 405.803C763.006 408.001 758.179 410.02 753.281 411.855C748.383 413.695 743.419 415.356 738.401 416.837C736.47 417.4 734.899 417.821 733.823 418.094C732.734 418.371 732.126 418.503 732.111 418.446V418.446ZM701.745 390.722C701.78 390.682 702.238 391.019 703.056 391.672C703.86 392.33 705.006 393.293 706.415 394.493C710.077 397.636 713.709 400.812 717.313 404.021C720.924 407.225 724.506 410.461 728.06 413.728C729.14 414.718 730.206 415.724 731.257 416.745C732.001 417.464 732.392 417.895 732.356 417.935C732.321 417.975 731.864 417.639 731.045 416.985C730.241 416.328 729.095 415.364 727.687 414.164C724.025 411.022 720.392 407.845 716.789 404.636C712.568 400.883 708.768 397.445 706.056 394.926C704.976 393.935 703.911 392.93 702.859 391.909C702.101 391.193 701.696 390.766 701.745 390.722V390.722ZM684.661 442.566C684.697 442.526 685.289 442.965 686.325 443.805C687.468 444.754 688.923 445.957 690.644 447.41C694.269 450.48 699.242 454.752 704.7 459.521C710.158 464.291 715.074 468.639 718.604 471.812C720.265 473.326 721.664 474.605 722.761 475.613C723.723 476.519 724.249 477.051 724.214 477.092C724.179 477.132 723.586 476.693 722.55 475.853C721.407 474.904 719.952 473.701 718.231 472.249C713.516 468.246 708.831 464.209 704.175 460.137C699.513 456.07 694.879 451.973 690.271 447.846C688.61 446.332 687.211 445.053 686.114 444.045C685.137 443.143 684.626 442.607 684.661 442.566ZM723.493 475.998C723.478 475.941 724.208 475.638 725.527 475.132C727.003 474.583 728.896 473.877 731.167 473.039C735.927 471.258 742.508 468.79 749.684 465.857C755.817 463.356 761.909 460.754 767.957 458.052C769.793 457.245 771.627 456.432 773.458 455.613C774.762 455.049 775.492 454.746 775.522 454.8C775.551 454.853 774.858 455.238 773.596 455.897C772.333 456.557 770.483 457.482 768.188 458.572C762.202 461.426 756.133 464.104 749.99 466.602C743.847 469.105 737.633 471.429 731.355 473.57C729.453 474.219 727.542 474.838 725.621 475.428C724.276 475.835 723.519 476.037 723.493 475.998V475.998Z" fill="white"/>
<path d="M713.933 256H714.064C714.838 266.517 723 266.679 723 266.679C723 266.679 714 266.848 714 279C714 266.848 705 266.679 705 266.679C705 266.679 713.158 266.517 713.933 256V256Z" fill="#E1E4E5"/>
<path d="M458.699 255.487L443.572 310.785L448.969 304.574C446.973 305.637 444.659 306.452 442.096 307.03C439.534 307.609 436.747 307.939 433.831 308.093C430.914 308.246 427.879 308.223 424.762 308.093C421.656 307.963 418.48 307.727 415.256 307.455H415.244C412.96 307.261 410.692 307.982 408.939 309.458C407.185 310.935 406.09 313.047 405.892 315.331C405.503 319.866 408.726 323.881 413.143 324.601C416.473 325.132 419.85 325.628 423.321 326.03C426.793 326.431 430.347 326.726 434.031 326.809C437.716 326.892 441.53 326.75 445.474 326.183C449.406 325.616 453.491 324.589 457.483 322.865C458.697 322.342 459.787 321.569 460.682 320.597C461.577 319.624 462.257 318.474 462.678 317.221L462.867 316.642L481.016 262.253C483.059 256.137 479.753 249.536 473.636 247.493C467.52 245.45 460.919 248.757 458.876 254.873C458.817 255.074 458.746 255.298 458.699 255.487V255.487Z" fill="#F8AE9D"/>
<path d="M537.123 322.811C537.123 322.811 537.707 331.001 531.842 333.165L470.821 335.515C470.821 335.515 466.721 331.536 467.528 321.997C467.528 321.974 493.46 295.518 537.123 322.811Z" fill="#CCA770"/>
<path d="M492.317 331.45C492.518 333.008 493.203 334.201 493.852 334.106C494.49 334.024 494.856 332.689 494.655 331.143C494.454 329.584 493.769 328.391 493.12 328.486C492.47 328.568 492.116 329.903 492.317 331.45Z" fill="#B55E63"/>
<path d="M466.374 312.021V312.104C466.398 312.332 466.41 312.572 466.422 312.824C466.482 313.784 466.53 314.936 466.566 316.244C466.602 317.3 466.614 318.452 466.626 319.688C466.626 320.612 466.638 321.572 466.638 322.568C483.99 315.068 519.473 320.396 533.757 323C533.614 322.28 533.482 321.572 533.35 320.876C533.254 320.36 533.17 319.856 533.074 319.352C532.128 313.868 531.624 308.937 531.457 304.533L531.421 303.357C531.277 296.817 531.984 287.518 533.422 277.942C533.518 277.282 533.626 276.622 533.721 275.974L533.937 274.678C534.459 271.498 535.071 268.333 535.771 265.187C536.01 264.131 536.214 263.063 536.382 262.007C536.573 260.831 536.717 259.655 536.825 258.491C537.089 255.539 537.065 252.659 536.681 249.983C535.998 245.219 534.141 241.116 530.702 238.476C528.76 236.988 526.304 235.956 523.26 235.548C522.265 235.416 521.283 235.284 520.336 235.176C517.352 234.816 514.608 234.564 512.379 234.384C511.648 234.324 510.965 234.276 510.354 234.228C508.796 234.12 507.645 234.048 507.082 234.024C506.946 234.018 506.81 234.01 506.675 234L480.035 241.38L477.495 242.076C476.416 242.412 475.398 242.736 474.451 243.048C472.102 243.828 470.101 244.572 468.375 245.303C466.242 246.215 464.541 247.103 463.199 248.039C457.327 252.107 458.165 256.799 458.189 266.039V266.675C458.189 267.371 458.177 268.066 458.154 268.762C458.13 269.638 458.082 270.502 458.01 271.366C457.89 273.106 458.923 274.804 458.707 276.508C461.5 288.5 462.199 292.5 463.199 300C464.065 306.5 463.894 310.197 465.715 311.541C466.123 311.853 466.374 312.021 466.374 312.021Z" fill="#CCA770"/>
<path d="M506.097 235.307C506.097 235.307 503.747 244.198 494.868 246.666C483.579 249.795 481.878 246.005 481.878 246.005C482.159 244.395 482.262 242.76 482.185 241.128C482.157 240.477 482.106 239.827 482.032 239.18C481.831 237.361 481.453 235.378 480.922 233.11C480.804 232.579 480.662 232.024 480.521 231.457L480.509 231.386C488.231 228.482 494.289 224.124 497.997 217.677L499.095 216.815L499.839 216.225L500.051 216.673L500.087 218.173C500.24 225.222 501.433 229.391 506.097 235.307V235.307Z" fill="#F8AE9D"/>
<path d="M452.877 455.979C453.102 455.979 453.326 455.944 453.55 455.861L532.784 427.297C533.269 427.106 533.66 426.734 533.875 426.259C534.09 425.784 534.111 425.244 533.934 424.754C533.758 424.264 533.397 423.862 532.928 423.633C532.46 423.405 531.921 423.368 531.426 423.53L452.192 452.094C451.748 452.254 451.376 452.566 451.139 452.974C450.903 453.382 450.818 453.86 450.9 454.325C450.982 454.789 451.225 455.21 451.587 455.512C451.949 455.815 452.405 455.98 452.877 455.979V455.979Z" fill="#CCA770"/>
<path d="M535.393 455.98C535.864 455.979 536.319 455.811 536.678 455.508C537.038 455.204 537.279 454.784 537.36 454.32C537.44 453.857 537.355 453.379 537.118 452.972C536.882 452.565 536.51 452.255 536.067 452.095L455.889 423.058C455.394 422.894 454.854 422.929 454.384 423.156C453.914 423.384 453.552 423.785 453.373 424.276C453.195 424.766 453.215 425.307 453.429 425.783C453.643 426.259 454.034 426.633 454.519 426.825L534.697 455.861C534.945 455.944 535.169 455.98 535.393 455.98V455.98Z" fill="#CCA770"/>
<path d="M445.828 507.026C446.655 507.024 447.454 506.723 448.077 506.178C448.7 505.633 449.105 504.882 449.217 504.062L463.528 397.21H523.408L537.495 504.062C537.553 504.508 537.698 504.937 537.923 505.326C538.147 505.716 538.446 506.057 538.803 506.33C539.159 506.603 539.567 506.803 540.001 506.919C540.435 507.034 540.888 507.063 541.333 507.003C541.778 506.945 542.208 506.799 542.597 506.575C542.986 506.35 543.327 506.051 543.6 505.695C543.873 505.338 544.073 504.931 544.189 504.497C544.304 504.063 544.333 503.61 544.273 503.165L529.796 393.337C529.688 392.515 529.284 391.759 528.661 391.212C528.038 390.665 527.237 390.362 526.407 390.361H460.529C459.701 390.36 458.9 390.66 458.277 391.205C457.653 391.75 457.249 392.504 457.14 393.325L442.427 503.153C442.308 504.053 442.55 504.964 443.101 505.686C443.652 506.407 444.467 506.881 445.367 507.003C445.521 507.026 445.674 507.026 445.828 507.026V507.026Z" fill="#CCA770"/>
<path d="M479.611 393.785H522.392C535.948 393.785 550.461 386.37 552.539 372.967C555.162 356.043 556.064 338.896 555.231 321.79C554.357 303.783 545.761 287.039 531.603 275.88C531.603 275.88 523.054 313.123 533.799 364.536C529.714 384.079 479.611 393.785 479.611 393.785Z" fill="#CCA770"/>
<path d="M380.623 461.245H399.728C399.728 461.245 404.157 440.038 405.633 428.135C407.12 416.244 407.888 388.046 407.888 388.046C407.888 388.046 423.121 392.994 455.003 391.128C525.64 387.007 498.859 335.11 498.859 335.11C496.473 338.404 481.855 336.125 471.865 337.696C441.199 340.636 414.595 352.681 398.642 359.565C394.793 361.218 391.38 362.977 388.393 364.819C384.543 367.193 382.134 374.384 380.682 383.854C376.313 412.3 380.623 461.245 380.623 461.245V461.245Z" fill="#62533C"/>
<path d="M381.154 485.725H394.639L397.237 469.902L398.654 461.246H381.898L381.638 469.902L381.154 485.725V485.725Z" fill="#F8AE9D"/>
<path d="M381.154 485.724H394.639L396.576 473.94L397.237 469.901H381.638L381.508 474.093L381.154 485.724V485.724Z" fill="url(#paint2_linear_13_2)"/>
<path d="M347.867 507.027H398.89C399.268 506.342 399.481 505.362 399.563 504.193C399.882 499.871 398.512 492.987 397.827 488.641C397.745 488.133 397.674 487.661 397.615 487.236C397.52 486.504 397.461 485.902 397.461 485.465C397.461 481.922 394.32 482.524 394.32 482.524C389.16 487.59 383.315 479.997 379.903 482.489C379.903 482.489 379.761 482.595 379.454 482.831C379.17 483.056 378.733 483.41 378.131 483.918C377.257 484.65 376.041 485.701 374.388 487.189C370.338 490.837 363.454 493.235 357.585 495.691C356.841 495.998 356.144 496.316 355.495 496.623C355.011 496.86 354.55 497.096 354.113 497.332C349.319 499.918 347.796 502.398 347.453 504.193C347.111 505.928 347.867 507.027 347.867 507.027V507.027Z" fill="#62533C"/>
<path d="M347.867 507.027H398.89C399.268 506.342 399.481 505.362 399.563 504.193H347.453C347.111 505.929 347.867 507.027 347.867 507.027Z" fill="#62533C"/>
<path d="M509.245 249.374L492.284 311.914L498.331 304.89C496.094 306.094 493.5 307.008 490.631 307.667C487.762 308.315 484.629 308.697 481.37 308.859C478.1 309.033 474.691 308.998 471.203 308.859C467.714 308.709 464.156 308.454 460.541 308.142H460.519C455.182 307.679 450.489 311.671 450.03 317.051C449.593 322.177 453.208 326.724 458.166 327.534C461.896 328.136 465.694 328.703 469.584 329.154C473.475 329.606 477.468 329.953 481.6 330.045C485.731 330.138 490.011 329.976 494.43 329.328C498.848 328.68 503.427 327.523 507.902 325.579C510.771 324.329 512.803 321.957 513.732 319.203L513.95 318.555L534.285 257.034C536.569 250.114 532.874 242.651 526.011 240.337C519.16 238.034 511.747 241.76 509.452 248.679C509.383 248.899 509.302 249.165 509.245 249.374V249.374Z" fill="#F8AE9D"/>
<path d="M413.898 461.305H433.004C433.004 461.305 437.432 440.097 438.908 428.194C440.396 416.303 441.164 388.105 441.164 388.105C441.164 388.105 456.396 393.053 488.278 391.187C558.915 387.066 532.134 335.169 532.134 335.169C529.749 338.463 511.848 343.01 501.858 344.58C471.192 347.52 447.871 352.728 431.918 359.624C428.068 361.277 424.656 363.036 421.668 364.878C417.819 367.252 415.41 374.443 413.957 383.913C409.577 412.359 413.898 461.305 413.898 461.305V461.305Z" fill="#62533C"/>
<path d="M414.418 485.794H427.915L430.513 469.971L431.93 461.304H415.174L414.902 469.971L414.418 485.794Z" fill="#F8AE9D"/>
<path d="M414.418 485.795H427.915L429.839 474.01L430.513 469.972H414.902L414.772 474.164L414.418 485.795V485.795Z" fill="url(#paint3_linear_13_2)"/>
<path d="M381.131 507.096H432.154C432.532 506.411 432.744 505.431 432.827 504.262C433.146 499.941 431.776 493.056 431.091 488.711C431.009 488.203 430.938 487.731 430.879 487.306C430.784 486.574 430.725 485.971 430.725 485.534C430.725 481.992 427.584 482.594 427.584 482.594C422.424 487.66 416.579 480.067 413.166 482.559C413.166 482.559 413.025 482.665 412.718 482.901C412.434 483.126 411.997 483.48 411.395 483.988C410.521 484.72 409.305 485.771 407.652 487.258C403.602 490.907 396.717 493.304 390.849 495.76C390.105 496.067 389.408 496.386 388.759 496.693C388.275 496.929 387.814 497.166 387.377 497.402C382.583 499.988 381.06 502.467 380.717 504.262C380.387 505.986 381.131 507.096 381.131 507.096V507.096Z" fill="#62533C"/>
<path d="M381.13 507.096H432.154C432.532 506.411 432.744 505.431 432.827 504.262H380.717C380.387 505.986 381.13 507.096 381.13 507.096Z" fill="#62533C"/>
<path d="M309.472 334.5V339.799C309.472 342.854 311.347 345.319 313.677 345.319H605.918C608.237 345.319 610.124 342.854 610.124 339.799V334.5C610.124 331.459 608.249 328.979 605.918 328.979H313.677C311.359 328.994 309.472 331.459 309.472 334.5V334.5Z" fill="#E1E4E5"/>
<path d="M324.415 352.854H587.468C588.648 352.854 589.605 352.075 589.605 351.107V341.908H322.29V351.107C322.29 352.075 323.246 352.854 324.415 352.854ZM601.685 508.431L564.418 353.944H577.513L614.768 508.431H601.685V508.431ZM346.414 508.431L383.681 353.944H370.597L333.331 508.431H346.414V508.431Z" fill="#E1E4E5"/>
<path d="M344.832 248.06L358.53 305.991L358.896 307.514L359.817 311.411C360.01 312.231 360.474 312.961 361.134 313.484C361.794 314.007 362.612 314.292 363.454 314.292H455.735C458.144 314.292 459.939 312.037 459.384 309.687L444.399 246.336C444.206 245.516 443.742 244.786 443.082 244.263C442.422 243.74 441.604 243.455 440.762 243.455H348.481C346.06 243.466 344.277 245.722 344.832 248.06V248.06Z" fill="#CCA770"/>
<path d="M389.668 281.359C390.105 285.351 393.694 288.574 397.686 288.574C401.677 288.574 404.546 285.339 404.109 281.359C403.672 277.368 400.083 274.145 396.092 274.145C392.1 274.145 389.231 277.368 389.668 281.359V281.359Z" fill="white"/>
<path d="M437.091 243.466L453.044 314.303H455.736C458.145 314.303 459.928 312.048 459.373 309.698L444.388 246.347C444.195 245.527 443.731 244.797 443.071 244.274C442.411 243.751 441.593 243.466 440.751 243.466H437.091V243.466ZM410.426 313.729L412.957 327.89H404.595L402.064 313.729H410.426Z" fill="#62533C"/>
<path d="M424.582 326.612L422.692 323.955C422.357 323.488 421.916 323.107 421.405 322.844C420.893 322.581 420.327 322.444 419.752 322.444H394.4C393.742 322.442 393.096 322.622 392.534 322.964C391.971 323.305 391.514 323.795 391.212 324.38L389.936 326.825C389.334 327.97 390.173 329.328 391.46 329.328H423.177C424.57 329.328 425.385 327.746 424.582 326.612V326.612Z" fill="#62533C"/>
<path d="M476.505 233.507C476.505 233.507 502.059 231.018 500.263 215.127C498.468 199.236 500.554 188.212 484.164 189.131C467.774 190.049 465.289 196.469 464.601 201.918C463.912 207.368 469.814 233.744 476.505 233.507Z" fill="#F8AE9D"/>
<path d="M455 187.945C455 187.945 457.635 202.693 462.656 203.231C467.676 203.768 465.877 197.567 465.877 197.567L464.523 190.572L455 187.945Z" fill="#002C54"/>
<path d="M498.431 183.213C497.759 177.627 491.889 176.057 491.889 176.057C485.999 173.955 474.378 176.208 462.532 180.042C459.742 180.941 456.027 179.544 454.18 181.105C451.946 182.992 455.039 190.357 455.039 190.357C461.042 204.051 477.778 197.833 482.783 195.598C484.358 199.119 484.677 204.189 487.975 206.522C489.863 207.846 492.888 207.604 495.933 206.796C496.373 207.477 497.865 207.986 498.245 208.947C499.531 212.163 499.876 217.346 500.223 221.33L501.616 220.476C501.7 219.37 513.397 182.277 498.431 183.213V183.213Z" fill="#002C54"/>
<path d="M266.033 186H235C223.954 186 215 194.954 215 206V219.708C215 230.754 223.954 239.708 235 239.708H266.033C277.079 239.708 286.033 230.754 286.033 219.708V206C286.033 194.954 277.079 186 266.033 186Z" fill="#CCA770"/>
<path d="M255.895 232.092L255.178 231.375C252.444 228.641 248.012 228.641 245.278 231.375L244.561 232.092C241.827 234.826 241.827 239.258 244.561 241.992L245.278 242.71C248.012 245.443 252.444 245.443 255.178 242.71L255.895 241.992C258.629 239.258 258.629 234.826 255.895 232.092Z" fill="#CCA770"/>
<path fill-rule="evenodd" clip-rule="evenodd" d="M257.75 197.55C263.964 197.55 268.13 203.358 268.13 208.767C268.13 219.746 250.832 228.735 250.516 228.735C250.201 228.735 232.903 219.746 232.903 208.767C232.903 203.358 237.069 197.55 243.283 197.55C246.835 197.55 249.168 199.314 250.516 200.885C251.865 199.314 254.198 197.55 257.75 197.55Z" fill="white"/>
</g>
<defs>
<linearGradient id="paint0_linear_13_2" x1="506.328" y1="529.456" x2="506.302" y2="465.883" gradientUnits="userSpaceOnUse">
<stop stop-color="white"/>
<stop offset="1" stop-color="#EEEEEE"/>
</linearGradient>
<linearGradient id="paint1_linear_13_2" x1="169.42" y1="273.791" x2="283.369" y2="121.987" gradientUnits="userSpaceOnUse">
<stop stop-color="white"/>
<stop offset="1" stop-color="#EEEEEE"/>
</linearGradient>
<linearGradient id="paint2_linear_13_2" x1="388.853" y1="494.596" x2="389.333" y2="452.688" gradientUnits="userSpaceOnUse">
<stop stop-color="white"/>
<stop offset="1" stop-color="#EEEEEE"/>
</linearGradient>
<linearGradient id="paint3_linear_13_2" x1="422.122" y1="494.666" x2="422.602" y2="452.759" gradientUnits="userSpaceOnUse">
<stop stop-color="white"/>
<stop offset="1" stop-color="#EEEEEE"/>
</linearGradient>
<clipPath id="clip0_13_2">
<rect width="900" height="600" fill="white"/>
</clipPath>
</defs>
</svg>
